<?xml version="1.0" encoding="UTF-8"?>
<!DOCTYPE svg PUBLIC "-//W3C//DTD SVG 1.1//EN" "http://www.w3.org/Graphics/SVG/1.1/DTD/svg11.dtd">
<!-- Creator: CorelDRAW 2018 (64-Bit) -->
<svg xmlns="http://www.w3.org/2000/svg" xml:space="preserve" width="400.43mm" height="320.346mm" version="1.1" style="shape-rendering:geometricPrecision; text-rendering:geometricPrecision; image-rendering:optimizeQuality; fill-rule:evenodd; clip-rule:evenodd"
viewBox="0 0 40043 32034.6"
 xmlns:xlink="http://www.w3.org/1999/xlink">
 <defs>
  <style type="text/css">
   <![CDATA[
    .fil41 {fill:#0E7DCF}
    .fil0 {fill:#0E8CD8}
    .fil40 {fill:#1191DA}
    .fil7 {fill:#1191DA}
    .fil5 {fill:#1396DC}
    .fil1 {fill:#1398DD}
    .fil12 {fill:#15A0E3}
    .fil32 {fill:#15A5E2}
    .fil4 {fill:#17A2E3}
    .fil31 {fill:#18A4E2}
    .fil6 {fill:#1AAFE9}
    .fil30 {fill:#1B8FD8}
    .fil3 {fill:#1BABE7}
    .fil2 {fill:#1DADE9}
    .fil35 {fill:#1E8CDB}
    .fil27 {fill:#1E92DB}
    .fil39 {fill:#24A4E5}
    .fil22 {fill:#24A9E4}
    .fil11 {fill:#25ADE7}
    .fil36 {fill:#28B3EA}
    .fil29 {fill:#28B5EB}
    .fil23 {fill:#2DB5E9}
    .fil25 {fill:#2FB5EA}
    .fil28 {fill:#30B8EC}
    .fil13 {fill:#3B6B93}
    .fil19 {fill:#47383D}
    .fil18 {fill:#5A4B50}
    .fil21 {fill:#70A6CC}
    .fil26 {fill:#E0DBC7}
    .fil34 {fill:#F6F3E0}
    .fil17 {fill:#F73624}
    .fil14 {fill:#F74430}
    .fil8 {fill:#F74430}
    .fil16 {fill:#F83926}
    .fil20 {fill:#F8432E}
    .fil38 {fill:#F92C0F}
    .fil33 {fill:#FA290B}
    .fil9 {fill:#FB2908}
    .fil42 {fill:#FB2A0C}
    .fil10 {fill:#FC5E55}
    .fil15 {fill:#FD5A55}
    .fil37 {fill:#FD5F54}
    .fil24 {fill:#FEFFFF}
   ]]>
  </style>
    <clipPath id="id0">
     <rect x="-0.02" y="0.02" width="40043.04" height="32034.56"/>
    </clipPath>
    <clipPath id="id1">
     <path d="M26883.26 3344.39l-814.88 518.62 -899.66 -497.4 26.56 -518.62 846.66 -486.83 835.99 497.39 5.33 486.84z"/>
    </clipPath>
    <clipPath id="id2">
     <rect x="27371.52" y="0.7" width="3704.12" height="1481.62"/>
    </clipPath>
     <clipPath id="id3">
      <rect x="27371.52" y="0.7" width="3704.12" height="1481.62"/>
     </clipPath>
    <clipPath id="id4">
     <path d="M26047.18 4434.47l-814.88 518.62 -899.66 -497.4 26.56 -518.62 846.66 -486.83 835.99 497.39 5.33 486.84z"/>
    </clipPath>
 </defs>
 <g id="Слой_x0020_1">
  <metadata id="CorelCorpID_0Corel-Layer"/>
  <g id="_2112365538864">
   <g style="clip-path:url(#id0)">
    <image x="-0.02" y="0.02" width="40043.03" height="32034.56" xlink:href="post_office_Images\post_office_ImgID1.png"/>
   </g>
   <g style="clip-path:url(#id1)">
    <image x="-259.32" y="-2079.61" width="40043.03" height="32034.56" xlink:href="post_office_Images\post_office_ImgID2.png"/>
   </g>
   <g style="clip-path:url(#id2)">
    <image style="clip-path:url(#id3)" x="-2878.69" y="-111.11" width="40043.03" height="32034.56" xlink:href="post_office_Images\post_office_ImgID3.png"/>
   </g>
   <rect class="fil0" x="9.47" y="2.71" width="2846.92" height="2931.58"/>
   <rect class="fil1" x="13714.53" y="478.89" width="1058.33" height="1365.25"/>
   <rect class="fil2" x="39082.82" y="2595.6" width="947.21" height="1021.29"/>
   <rect class="fil3" x="36288.82" y="5262.62" width="1116.54" height="1053.04"/>
   <rect class="fil4" x="24234.45" y="29366.15" width="2698.76" height="2635.25"/>
   <rect class="fil5" x="10550.19" y="30657.29" width="1460.5" height="1365.25"/>
   <rect class="fil6" x="39130.5" y="29752.42" width="910.17" height="978.96"/>
   <rect class="fil0" x="9.24" y="28191.36" width="730.25" height="920.75"/>
   <polygon class="fil7" points="1750.17,27680.71 1475.03,27392.32 4078.53,24778.23 4364.28,25053.4 "/>
   <polygon class="fil8" points="21476.86,6908.31 16412.72,11183.98 18074.31,12162.94 22519.32,7506.27 "/>
   <polygon class="fil9" points="21759.91,7059.15 21963.64,6852.78 22379.04,7085.61 21992.74,7207.32 "/>
   <polygon class="fil10" points="22013.23,6872.63 22154.78,6700.65 22509.33,6905.7 22293.69,7030.06 "/>
   <polygon class="fil11" points="22378.27,6827.67 22284.36,6772.11 22992.74,6078.9 23422.06,6118.58 "/>
   <path class="fil12" d="M23279.81 5736.28c-251.74,251.28 -368.16,367.48 -349.26,348.6 105.41,3.07 182.36,2.85 230.85,-0.67 167.81,-209.67 252.92,-312.41 255.33,-308.24 -91.28,-26.46 -136.92,-39.69 -136.92,-39.69z"/>
   <polygon class="fil13" points="13539.79,15322.88 13550.38,15008.02 15143.17,14084.62 15156.4,14267.19 13846.71,15653.61 13439.25,15396.96 "/>
   <polygon class="fil14" points="16799.37,12129.01 16997.81,11827.38 17532.27,12121.07 17172.44,12308.92 "/>
   <polygon class="fil15" points="17078.52,11860.47 17214.78,11660.71 17536.26,11844.6 17292.84,11980.86 "/>
   <polygon class="fil16" points="16696.22,12327.52 16775.59,12312.97 16768.98,12533.9 16697.54,12532.57 "/>
   <polygon class="fil17" points="16503.22,12458.52 16511.15,12650.34 16684.46,12541.86 "/>
   <polygon class="fil18" points="12722.38,15880.95 13436.76,15396.77 13926.24,15714.27 13312.4,16227.56 "/>
   <polygon class="fil19" points="12531.91,15949.88 12600.42,15810.12 13526.76,16350.02 13263.66,16404.84 "/>
   <polygon class="fil20" points="15296.83,13707.33 15214.8,13708.65 15214.8,14129.34 15294.18,14129.34 "/>
   <polygon class="fil21" points="14475.98,14143.87 15212.86,13691.43 15215.5,14034.07 14510.38,14452.11 "/>
   <path class="fil22" d="M16412.78 26170.48c747,-1045.31 1071.56,-1544.49 973.67,-1497.54 419.54,35.74 819.95,62.2 1201.21,79.37 -1347.61,984.25 -2021.42,1476.38 -2021.42,1476.38 -111.44,-55.99 -162.59,-75.39 -153.46,-58.21z"/>
   <path class="fil23" d="M18680.32 24736.41c808.53,-1181.36 1215.99,-1777.55 1222.38,-1788.59 0,0 -105.83,54.68 -317.5,164.05 0,0 -657.93,518.58 -1973.8,1555.75 224.95,35.55 581.26,58.48 1068.92,68.79z"/>
   <polygon class="fil24" points="19511.13,23159.48 19482.02,22979.56 20416.01,22439.81 20339.28,22683.23 "/>
   <polygon class="fil25" points="19989.97,22662.06 21185.89,21201.56 23620.06,19809.85 21863.22,21598.43 "/>
   <polygon class="fil26" points="23974.61,18328.14 24006.37,18391.64 26493.45,16994.64 25985.45,16412.56 "/>
   <polygon class="fil27" points="27866.64,14758.83 27869.28,14901.71 28345.54,14581.56 28102.12,14441.33 "/>
   <polygon class="fil28" points="30503.13,12097.09 28063.66,14385.76 28299.14,14541.86 30720.09,12226.73 "/>
   <polygon class="fil2" points="39071.66,17093.71 39035.93,17290.82 40036.06,17269.66 40042.68,16125.33 "/>
   <polygon class="fil29" points="37989.53,18025.01 36653.38,19197.13 37214.3,19511.99 38389.05,18220.81 "/>
   <polygon class="fil30" points="36402,19607.18 36507.83,19136.22 37206.33,19517.23 36428.46,20046.39 36677.16,20183.98 36253.83,20475.02 36179.75,20337.43 35909.87,20205.14 "/>
   <polygon class="fil14" points="29874.65,26346.1 29882.59,25562.93 30628.72,25975.68 30102.19,26449.29 "/>
   <path class="fil31" d="M30186.83 29010.43c-314.34,645.29 -1030.48,909.88 -2148.42,793.76 0,0 -1347.61,-874.89 -4042.83,-2624.67 636.1,-4.61 1433.37,-142.19 2391.83,-412.75 318.35,100.28 1584.82,848.17 3799.42,2243.66z"/>
   <polygon class="fil32" points="30022.79,26459.84 29832.29,26338.13 28292.41,27819.8 28551.7,27978.55 "/>
   <polygon class="fil33" points="31778.24,24136.79 30666.99,24914.67 30682.86,25708.42 32402.66,24115.63 31836.45,24380.21 "/>
   <polygon class="fil34" points="32328.54,23491.19 31899.91,24321.99 32863,23766.36 "/>
   <path class="fil35" d="M32820.65 23692.28c-226.35,-109.36 -335.89,-172.41 -322.79,-190.5 366.89,-218.73 550.33,-328.09 550.33,-328.09 141.14,-93.54 312.24,-130.58 513.29,-111.12 -493.89,419.81 -740.83,629.71 -740.83,629.71z"/>
   <path class="fil36" d="M34568.2 21604.68c151.45,67.53 227.3,92.23 227.55,74.09 0,0 -416.28,455.08 -1248.84,1365.25 -141.77,-9.93 -291.7,0.65 -449.79,31.75 0,0 490.36,-490.36 1471.08,-1471.09z"/>
   <polygon class="fil37" points="35422.8,20784.47 35311.67,20689.21 36007.53,20263.23 36134.53,20326.73 "/>
   <polygon class="fil38" points="35428.06,20959.07 35351.33,20821.49 36121.27,20342.59 36129.21,20525.15 "/>
   <path class="fil39" d="M5029.9 10285.79c639.33,-528.61 1129.7,-867.27 1471.09,-1016 0,0 -407.46,395.11 -1222.38,1185.34 0,0 -82.9,-56.45 -248.71,-169.34z"/>
   <path class="fil40" d="M7706.16 7871.51c-759.87,935.23 -1112.65,1360.33 -1058.33,1275.3 0,0 -271.64,172.86 -814.92,518.58 560.92,-885.47 841.38,-1328.21 841.38,-1328.21 1587.5,-906.64 2381.25,-1359.96 2381.25,-1359.96 -899.59,596.19 -1349.38,894.29 -1349.38,894.29z"/>
   <path class="fil41" d="M8642.79 6757.61c-565.1,617.63 -847.32,930.72 -846.67,939.27 797.28,-456.85 1195.92,-685.27 1195.92,-685.27 -158.26,-117.09 -274.67,-201.76 -349.25,-254z"/>
   <polygon class="fil42" points="10042.45,5424.13 9465.66,5969.17 10045.09,5633.15 "/>
   <polygon class="fil5" points="11963.29,3460.96 10635.08,4667.46 10963.16,4783.88 12222.58,3450.37 "/>
   <g style="clip-path:url(#id4)">
    <image x="-1095.4" y="-989.53" width="40043.03" height="32034.56" xlink:href="post_office_Images\post_office_ImgID4.png"/>
   </g>
   <polygon class="fil31" points="27423,2397.26 27020.83,2841.76 26253.54,2423.71 26724.5,2153.84 "/>
  </g>
 </g>
</svg>
